[IMG]http://img63.imageshack.us/img63/1050/hddesirockers.png[/IMG]
[IMG]http://img156.imageshack.us/img156/5382/roadsignphp.png[/IMG]

[IMG]http://img576.imageshack.us/img576/3136/americangangsterm.jpg[/IMG]

[IMG]http://img137.imageshack.us/img137/7919/dvdbluraylogo.gif[/IMG]

[IMG]http://img209.imageshack.us/img209/3343/25ic0hd1.png[/IMG]
[b]Following the death of his employer and mentor, Bumpy Johnson, Frank Lucas establishes himself as the number one importer of heroin in the Harlem district of Manhattan. He does so by buying heroin directly from the source in South East Asia and he comes up with a unique way of importing the drugs into the United States. As a result, his product is superior to what is currently available on the street and his prices are lower. His alliance with the New York Mafia ensures his position. It is also the story of a dedicated and honest policeman, Richie Roberts, who heads up a joint narcotics task force with the Federal government. Based on a true story[/b]

[IMG]http://img692.imageshack.us/img692/4868/zvbzx21.png[/IMG]
[b]General
UniqueID                         : 232868275495707393341653921080599641207 (0xAF30CC69AD4272298406A4E5CF1BFC77)
Complete name                    : American Gangster 2007 720p BRRip Hindi~3385VKSH
Format                           : Matroska
File size                        : 2.42 GiB
Duration                         : 2h 29mn
Overall bit rate                 : 2 315 Kbps
Movie name                       : Recoded By HDiY Team
Encoded date                     : UTC 2010-12-28 15:22:27
Writing application              : mkvmerge v4.4.0 ('Die Wiederkehr') built on Oct 31 2010 21:52:48
Writing library                  : libebml v1.0.0 + libmatroska v1.0.0
[/b]

[IMG]http://img839.imageshack.us/img839/7057/imdb3.png[/IMG]
[size=3][url]http://www.imdb.com/title/tt0765429/[/url][/size]

[IMG]http://img214.imageshack.us/img214/241/windowsmediaplayerfile.png[/IMG]
[b]Video
ID                               : 1
Format                           : AVC
Format/Info                      : Advanced Video Codec
Format profile                   : High@L4.1
Format settings, CABAC           : Yes
Format settings, ReFrames        : 8 frames
Muxing mode                      : Header stripping
Codec ID                         : V_MPEG4/ISO/AVC
Duration                         : 2h 29mn
Bit rate                         : 2 013 Kbps
Width                            : 1 280 pixels
Height                           : 688 pixels
Display aspect ratio             : 1.860
Frame rate                       : 25.000 fps
Original frame rate              : 23.976 fps
Color space                      : YUV
Chroma subsampling               : 4:2:0
Bit depth                        : 8 bits
Scan type                        : Progressive
Bits/(Pixel*Frame)               : 0.091
Stream size                      : 2.11 GiB (87%)[/b]

[IMG]http://img821.imageshack.us/img821/5307/2l3ravv.png[/IMG]
[b]Audio
ID                               : 2
Format                           : MPEG Audio
Format version                   : Version 1
Format profile                   : Layer 3
Mode                             : Joint stereo
Muxing mode                      : Header stripping
Codec ID                         : A_MPEG/L3
Codec ID/Hint                    : MP3
Duration                         : 2h 29mn
Bit rate mode                    : Constant
Bit rate                         : 256 Kbps
Channel(s)                       : 2 channels
Sampling rate                    : 44.1 KHz
Compression mode                 : Lossy
Video delay                      : 1s 0ms
Stream size                      : 274 MiB (11%)[/b]

[IMG]http://img827.imageshack.us/img827/7996/ogtw21.gif[/IMG]
[IMG]http://leetleech.org/images/82516768188426703263.png[/IMG]
[IMG]http://leetleech.org/images/39979311782754468931.png[/IMG]
[IMG]http://leetleech.org/images/73132819682031619423.png[/IMG]
[IMG]http://leetleech.org/images/66781416544117899706.png[/IMG]

[IMG]http://img819.imageshack.us/img819/4206/slqp2p1.gif[/IMG]

[IMG]http://img843.imageshack.us/img843/5108/seedyd3.gif[/IMG]

[IMG]http://img842.imageshack.us/img842/9185/e5ab9ad248f9074c.gif[/IMG]

[IMG]http://img806.imageshack.us/img806/4074/enjoy.png[/IMG]

[IMG]http://img831.imageshack.us/img831/91/15880378.png[/IMG]



